name processed_emg_signals
nRows=73
nColumns=7
 
endheader
time	LGLTMED	LRF	LADDLONG	LST	LTA	LGM
1.74	0.1677422423316569	0.5331933515696865	0.6346355867736166	0.1266716570504895	0.3782224632285551	0.0451194369940698
1.741	0.1672502447327098	0.5436781053698414	0.6400741043958531	0.1217712906754217	0.3877387378805657	0.0444340182013029
1.742	0.1667563846398034	0.5541930101695771	0.6456026226770019	0.1169826860117118	0.3972269485880396	0.0438172017673413
1.743	0.1662612065844601	0.5647319147401036	0.6512177664665569	0.1123072838494083	0.4066771690261167	0.043267410268713
1.744	0.1657652607104623	0.5752886071582912	0.656916055390892	0.1077463762879765	0.4160794892170842	0.0427830203775903
1.745	0.1652691023635239	0.5858568163623142	0.6626939059511372	0.1033011078105157	0.4254240288092368	0.0423623659656151
1.746	0.1647732916587487	0.5964302139248263	0.6685476337663774	0.0989724765395517	0.4347009504968124	0.0420037412325159
1.747	0.1642783930230154	0.607002416055236	0.6744734559648985	0.0947613356693292	0.443900473557315	0.0417054038542945
1.748	0.1637849747097205	0.6175669858414707	0.6804674937262714	0.0906683950694261	0.4530128874812743	0.0414655781457094
1.749	0.1632936082837927	0.6281174357402026	0.6865257749766973	0.086694223054571	0.4620285656681601	0.0412824582317519
1.75	0.1628048680752864	0.6386472303232672	0.6926442372401562	0.0828392483153886	0.4709379791609758	0.0411542112228394
1.7510000000000001	0.1623193306003112	0.6491497892868618	0.6988187306472465	0.0791037620046927	0.4797317103910075	0.0410789803884744
1.752	0.1618375739487376	0.6596184907292889	0.7050450211039987	0.0754879199738735	0.488400466903406	0.0410548883241702
1.7530000000000001	0.1613601771383729	0.6700466747023481	0.7113187936223196	0.0719917451537875	0.4969350950334766	0.0410800401064901
1.754	0.1608877194358737	0.6804276470406342	0.7176356558134885	0.0686151300744012	0.5053265935028033	0.0411525264310499
1.7550000000000001	0.16042077964467	0.6907546834719981	0.7239911415441179	0.0653578395174779	0.5135661269033324	0.0412704267285007
1.756	0.1599599353603476	0.7010210340111314	0.7303807147524438	0.0622195132963722	0.5216450390364493	0.0414318122535257
1.7570000000000001	0.159505762193947	0.7112199276366631	0.736799773420151	0.0591996691568257	0.5295548660725208	0.0416347491420725
1.758	0.1590588329638771	0.7213445772505909	0.743243653693651	0.056297705792602	0.5372873494949597	0.0418773014321914
1.7590000000000001	0.1586197168573493	0.7313881849170584	0.7497076341467681	0.0535129059694147	0.5448344487912846	0.0421575340439781
1.76	0.1581889785624498	0.7413439473752012	0.7561869401768212	0.0508444397506601	0.5521883538524057	0.0424735157140986
1.7610000000000001	0.1577671773724921	0.751205061818378	0.7626767485256438	0.0482913678181608	0.5593414970402422	0.0428233218803717
1.762	0.1573548662642185	0.7609647319295575	0.7691721919177265	0.0458526448812624	0.5662865648827147	0.0432050375118722
1.7630000000000001	0.1569525909521733	0.7706161741601918	0.7756683638076889	0.0435271231674467	0.5730165093541939	0.0436167598799985
1.764	0.1565608889217929	0.7801526242377564	0.7821603232299987	0.041313555987751	0.579524558698746	0.0440566012659347
1.7650000000000001	0.1561802884440228	0.7895673438851459	0.7886430997442297	0.0392106013702227	0.5858042277532912	0.0445226916000427
1.766	0.1558113075747476	0.7988536277336915	0.7951116984697932	0.0372168257546654	0.5918493277285856	0.0450131810287326
1.7670000000000001	0.1554544531416898	0.8080048104104041	0.8015611052046241	0.0353307077418536	0.5976539754078599	0.0455262424046684
1.768	0.1551102197216108	0.8170142737790941	0.8079862916226117	0.0335506418906353	0.603212601726221	0.0460600736963387
1.7690000000000001	0.1547790886100991	0.8258754543136487	0.8143822205448408	0.0318749425561911	0.6085199596982855	0.0466129003133553
1.77	0.1544615267866494	0.8345818505798563	0.82074385128005	0.0303018477630901	0.613571131666677	0.0471829773441375
1.7710000000000001	0.1541579858777812	0.843127030800163	0.8270661450291577	0.0288295231067735	0.6183615358497662	0.0477685917028934
1.772	0.1538689011209548	0.8515046404741786	0.8333440703488912	0.0274560656774071	0.6228869321729235	0.0483680641831136
1.7730000000000001	0.1535946903325643	0.8597084100272158	0.8395726086690646	0.0261795080001881	0.6271434273736016	0.0489797514151352
1.774	0.1533357528829032	0.8677321624593922	0.8457467598577052	0.0249978219863667	0.6311274793763745	0.0496020477258176
1.7750000000000001	0.153092468681291	0.8755698209686263	0.8518615478272851	0.0239089228893791	0.6348359009396547	0.0502333868987215
1.776	0.1528651971749101	0.883215416521688	0.857912026174169	0.0229106732606119	0.6382658625805052	0.0508722438337646
1.7770000000000001	0.152654276364488	0.890663095348495	0.8638932838414978	0.0220008868994225	0.6414148947870318	0.0515171361056606
1.778	0.1524600218405421	0.89790712633538	0.8698004507938613	0.0211773327921715	0.6442808895291241	0.0521666254208874
1.7790000000000001	0.1522827258433057	0.904941908293218	0.8756287036902657	0.0204377390351894	0.6468621010781728	0.0528193189730504
1.78	0.1521226563495372	0.9117619770759252	0.8813732715410865	0.0197797967368486	0.6491571461457284	0.0534738706967914
1.7810000000000001	0.151980056188919	0.9183620125240206	0.8870294413337697	0.019201163894091	0.65116500335047	0.0541289824203323
1.782	0.15185514219232	0.924736845206988	0.8925925636126459	0.0186994692389822	0.6528850120230465	0.0547834049170009
1.7830000000000001	0.1517481043739523	0.9308814629370952	0.8980580579983355	0.0182723160509149	0.6543168703590173	0.0554359388561361
1.784	0.1516591051490201	0.9367910170273074	0.9034214186328828	0.0179172859301691	0.6554606329311896	0.0560854356540468
1.7850000000000001	0.1515882785884861	0.9424608282669652	0.9086782195369728	0.0176319425285297	0.6563167075734784	0.0567307982259712
1.786	0.1515357297123036	0.9478863925910574	0.9138241198658548	0.0174138352328016	0.6568858516494973	0.057370981640306
1.7870000000000001	0.1515015338225039	0.9530633864216076	0.9188548690501996	0.0172605027970069	0.6571691677206584	0.0580049936766891
1.788	0.1514857358773352	0.9579876716632892	0.9237663118074796	0.0171694769193926	0.6571680986312047	0.0586318952898084
1.7890000000000001	0.1514883499076149	0.962655300339761	0.9285543930083838	0.0171382857604519	0.6568844220308518	0.0592508009810459
1.79	0.1515093584761467	0.9670625188630158	0.9332151623821604	0.0171644573986086	0.6563202443593268	0.059860879080144
1.7910000000000001	0.1515487121810566	0.97120577193417	0.9377447790446352	0.0172455232205259	0.6554779943204274	0.0604613519393015
1.792	0.1516063292033259	0.9750817060799492	0.9421395158339532	0.0173790212433132	0.6543604158764711	0.0610514960419662
1.793	0.1516820948988135	0.9786871728337307	0.9463957634403368	0.0175624993662406	0.6529705607962742	0.061630642028736
1.794	0.1517758614346273	0.9820192315727376	0.950510034318215	0.0177935185497999	0.6513117807910662	0.062198174642715
1.795	0.1518874474693308	0.9850751520243792	0.954478966369915	0.0180696559201388	0.6493877192729719	0.0627535325968448
1.796	0.1520166378762674	0.9878524164551202	0.958299326391614	0.0183885077971751	0.6472023027705482	0.0632962083658864
1.797	0.1521631835092589	0.9903487215552808	0.9619680132740962	0.0187476926448631	0.6447597320353458	0.0638257479057087
1.798	0.1523268010098484	0.9925619800323188	0.9654820609531034	0.0191448539421707	0.6420644728726196	0.0643417503026335
1.799	0.1525071726552664	0.9944903219240931	0.9688386411066634	0.019577662973515	0.6391212467283152	0.0648438673554034
1.8	0.1527039462461625	0.996132095642172	0.9720350655991348	0.0200438215373639	0.6359350210636119	0.0653318030923378
1.801	0.1529167350330292	0.9974858687545176	0.975068788674235	0.0205410645718319	0.6325109995474338	0.0658053132259882
1.802	0.1531451176804827	0.9985504285165812	0.9779374089030092	0.021067162696111	0.6288546120965461	0.0662642045476255
1.803	0.1533886382685637	0.9993247821598352	0.9806386708958044	0.0216199246666141	0.6249715047918095	0.066708334263725
1.804	0.1536468063307602	0.9998081569466472	0.983170466789794	0.0221971997467817	0.620867529697793	0.0671376092765965
1.805	0.153919096928892	1.0	0.9855308375253352	0.0227968799893775	0.6165487346113393	0.0675519854112573
1.806	0.1542049507650901	0.9998999779165844	0.9877179739250184	0.0234169024303456	0.612021352763003	0.0679514665905707
1.807	0.1545037743319062	0.999507976172159	0.989730217588738	0.024055251193168	0.6072917924935943	0.0683361039607001
1.808	0.1548149401014582	0.9988240983285648	0.9915660616159522	0.0247099595028765	0.602366626926688	0.0687059949688405
1.809	0.1551377867548261	0.9978486650526752	0.993224151164557	0.0253791116088472	0.5972525836568332	0.069061282395367
1.81	0.1554716194528644	0.9965822129585622	0.9947032838540684	0.0260608446155331	0.5919565344724088	0.0694021533424359
1.811	0.1558157101494791	0.9950254932847322	0.9960024100200694	0.0267533502202589	0.5864854851313902	0.069728838181299
1.812	0.1561692979483802	0.993179470418008	0.9971206328266936	0.0274548763573194	0.5808465652072248	0.0700416094604405
